<svg width="438" height="637" viewBox="0 0 438 637" fill="none" xmlns="http://www.w3.org/2000/svg">
<path d="M72.2 2.66668C70.2 3.73335 68.2 5.60002 67.6667 6.93335C67.1333 8.26668 63.9333 21.6 60.4667 36.4L54.3333 63.6L35 70C24.3333 73.6 13.6667 77.2 11.2667 78.1334L7 79.8667V115.467V150.933L30.7333 151.867C114.333 155.2 164.733 168.4 223 202.4C234.2 208.933 235.667 209.467 236.067 207.2C237 201.6 228.467 173.867 223.133 165.2C219.667 159.6 197.533 144.933 175.8 134C148.067 120 113.4 110 85.2667 107.733C79.5333 107.333 74.6 106.533 74.3333 106C73.4 104.533 87 102.267 106.6 100.4C143 97.0667 183.667 104.933 218.067 122.133C241.667 133.867 256.6 144.667 276.467 164.533C309.267 197.333 328.467 232.267 337.667 276C341.4 293.6 342.6 324 340.333 343.067C338.867 355.867 332.067 386.667 330.467 388.4C330.067 388.8 326.067 388 321.4 386.667C301.933 381.2 284.333 382.933 270.867 391.467L264.733 395.333L266.6 402.4C271.667 421.6 269.667 443.2 261.267 458.533C254.467 470.933 243.667 478 228.067 480C221.933 480.8 221.667 480.933 221.667 485.333C221.667 492.4 217.133 504.933 211.8 513.067C200.733 529.733 182.6 541.333 156.467 548.4C145.267 551.333 141 551.867 122.333 551.867C103.533 552 100.2 551.6 93.6667 549.067C87.6667 546.8 82.8667 546.133 67.6667 545.733C50.3333 545.2 48.0667 544.8 35.6667 540.4C28.3333 537.867 18.8667 534.133 14.7333 532.267L7 528.667V542.533V556.4L16.6 561.067C25.2667 565.333 41.5333 571.067 51.1333 573.333C54.4667 574.133 54.7333 575.333 60.3333 601.067C65.8 626 66.6 628.267 70.4667 632.4L74.8667 636.8L122.867 636.4L171 636L174.333 632.667C177.133 629.867 178.6 624.933 183.533 601.6C186.733 586.267 189.8 573.467 190.067 573.067C190.467 572.667 197.8 570.133 206.333 567.2L221.933 562L243.267 580.8C266.867 601.6 269.933 603.067 278.067 598.267C284.2 594.8 338.733 554.533 343.4 550.267C345.4 548.4 347.533 544.667 348.333 542.133C349.667 537.333 348.067 533.2 330.6 495.2L325.933 485.067L333.8 473.867C347.267 454.8 343.933 456.667 361.667 458.667C370.067 459.733 383.667 460.933 391.667 461.333C406.067 462.267 406.333 462.267 409.4 458.933C411.533 456.667 416.467 443.2 425.133 415.867C437.4 376.8 439 369.6 436.333 364.8C435.667 363.467 423.667 355.867 409.667 347.867L384.333 333.467V316.533V299.6L409.933 284.4C430.2 272.4 435.933 268.4 437 265.467C438.067 262.4 436.067 255.2 424.467 220.267C416.867 197.333 409.8 177.333 408.733 175.6C405.4 170.267 402.333 170 372.867 173.467C357.533 175.2 344.6 176.533 344.067 176.4C343.533 176.133 338.6 170 333.133 162.8C323.4 149.867 323.267 149.467 324.867 145.467C325.8 143.2 330.867 131.333 336.2 119.067C341.4 106.8 345.667 95.3334 345.667 93.4667C345.667 91.6 344.067 88.2667 342.067 86.1334C336.867 80.6667 272.733 35.4667 268.733 34.5334C263.533 33.2 259.267 36 237.8 55.7334L217.8 74.1334L204.733 70C197.533 67.6 190.2 65.3334 188.467 64.8C185.4 63.8667 184.733 61.8667 178.867 35.2C173.267 10.1333 172.067 6.26668 169 3.60002C165.533 0.666682 165.267 0.666682 120.6 0.666682C84.2 0.800016 75 1.20002 72.2 2.66668Z" fill="#142A6F"/>
<path d="M6.19995 163.867C4.73328 169.733 7.53328 174 12.7333 174C30.9999 174 91.1333 184.4 112.333 191.2L124.467 195.067L126.333 190.4C127.4 187.867 129.533 184 131.133 181.867C132.733 179.6 133.8 177.6 133.533 177.467C133.267 177.2 125.8 175.2 117 172.933C87.9333 165.6 65.3999 162.533 28.0666 161.067L7.13328 160.267L6.19995 163.867Z" fill="#142A6F"/>
<path d="M239 181.867C243.8 194.267 246.067 209.467 245.267 223.2C244.733 230.267 244.067 237.6 243.667 239.467C242.867 242.8 243.267 243.067 253.267 246.667C274.2 254 290.733 264.267 296.333 273.2C300.333 279.733 300.333 291.067 296.333 296.4C293.4 300.4 293.667 303.333 296.867 303.333C297.8 303.333 301.267 300.933 304.6 298C312.867 290.8 316.6 281.733 317.4 267.333C319.267 228.933 292.867 195.333 247 178.133C236.6 174.133 236.2 174.267 239 181.867Z" fill="#142A6F"/>
<path d="M6.20001 185.467C5.66668 187.333 5.93335 190.667 6.46668 193.067L7.66668 197.2L31 201.467C60.6 206.933 91.4 213.867 107.4 218.8C109.533 219.467 109.8 218.667 109.4 209.2L109 198.8L102.333 197.067C81.8 191.6 23.4 182 11.4 182C7.80001 182 6.86668 182.667 6.20001 185.467Z" fill="#142A6F"/>
<path d="M147.4 184.667C127.533 194.8 134.733 224.933 157 224.933C172.867 224.933 183 209.333 176.6 195.067C171.533 183.467 158.733 178.933 147.4 184.667ZM170.867 193.2C173.667 196.533 172.067 202.4 168.067 203.867C161.4 206.133 156.2 198.267 161.133 193.467C163.667 190.8 168.867 190.667 170.867 193.2Z" fill="#142A6F"/>
<path d="M190.333 205.6C188.6 217.2 182.2 226.267 171.667 231.733C164.2 235.733 149.8 235.733 142.2 231.733C132.733 226.8 124.333 214.933 124.333 206.8C124.333 203.2 119.667 201.067 118.467 204.267C114.467 214.533 124.6 238.533 136.2 246.533L141.133 250L154.467 248C161.667 246.933 172.333 246 178.2 246C190.467 246 213.8 249.2 221.8 252C224.867 253.067 228.067 254 229 254C231 254 234.733 241.333 236.2 229.467L237.133 220.533L233.133 218C228.733 215.333 198.867 201.733 194.2 200.133C191.667 199.333 191.267 199.867 190.333 205.6Z" fill="#142A6F"/>
<path d="M6.20004 210.8C5.40004 214.133 6.33337 225.867 7.6667 227.067C9.00004 228.4 55.6667 242.533 77.6667 248.133C94.6 252.533 104.733 254.4 114.733 254.933C122.2 255.333 128.333 255.333 128.333 254.8C128.333 254.267 125.8 250.8 122.867 246.933C119.8 243.067 116.2 237.467 114.733 234.4C112.067 228.267 113.267 228.8 91.6667 223.467C77.2667 220 11.9334 207.333 7.80004 207.333C7.40004 207.333 6.60004 208.933 6.20004 210.8Z" fill="#142A6F"/>
<path d="M6.99995 241.867C4.59995 246.4 5.79995 274.667 8.59995 277.333C8.86661 277.6 20.7333 276.933 34.9999 276C49.2666 274.933 68.7333 274.133 78.0666 274H95.1333L103.133 268.4L111 262.8L96.7333 260.4C80.0666 257.6 56.8666 252.133 30.0666 244.667C19.6666 241.733 10.4666 239.333 9.79995 239.333C8.99995 239.333 7.79995 240.533 6.99995 241.867Z" fill="#142A6F"/>
<path d="M238.333 259.067C237.133 263.2 235.933 267.6 235.533 268.8C235.133 270.4 232.733 271.2 227.267 271.733C219.267 272.4 207.133 277.467 209.133 279.2C211.133 280.933 221.133 283.333 226.333 283.333C230.6 283.333 231.133 283.6 229.667 285.333C228.733 286.4 226.867 287.333 225.4 287.333C224.067 287.333 223.267 287.867 223.667 288.667C224.067 289.333 223.8 291.067 223 292.533C221.667 295.067 221.4 295.067 215.267 293.2C204.467 289.6 204.733 289.867 209 288L213 286.267L209.267 284.8C203 282.4 200.467 283.067 194.2 289.467C179.533 304 175.667 328.8 185.267 346.4C189.267 353.6 195.8 359.333 204.467 363.333C211.933 366.667 214.2 366.667 221.4 363.2C227 360.4 227.267 360 226.6 355.867C226.067 352.667 226.333 351.333 227.533 351.333C230.2 351.333 233.8 346.667 232.333 345.2C231.667 344.533 231.533 342.267 232.067 340C233.133 336.267 233.8 336 241 335.2C246.333 334.533 249.4 333.467 250.6 331.867C254.333 326.667 251.8 314.267 242.6 293.067C237.133 280.533 237.667 279.067 247.4 278.533C254.467 278.267 257.8 274.133 258.733 264.933C259.4 257.733 260.067 258.4 247.4 254L240.467 251.467L238.333 259.067Z" fill="#142A6F"/>
<path d="M159 255.467C140.6 257.467 118.6 264.533 109.267 271.6C107.133 273.2 108.6 273.467 120.067 273.6C151.267 274.133 167.133 280.8 170.867 294.933C171.8 298.4 171.8 298.4 175.4 292.4C179.933 284.533 187.4 276.8 194.867 272.133C201.533 267.867 213.8 263.333 218.6 263.333C223.267 263.333 222.2 261.2 216.733 259.6C202.2 255.467 176.6 253.6 159 255.467Z" fill="#142A6F"/>
<path d="M48.3333 282.133C21.4 283.6 9.39995 285.333 7.39995 288.133C5.13328 291.2 5.13328 302.133 7.39995 304.933C8.73328 306.667 13.8 307.2 38.3333 307.867C54.4666 308.267 73.4 309.2 80.3333 310C93.9333 311.467 124.733 316.4 127.933 317.6C129.267 318.133 129 316.8 126.867 312.8C122.867 305.2 123.8 295.867 129.267 288.133L133.267 282.4L113.267 281.6C90.0666 280.533 73.5333 280.667 48.3333 282.133Z" fill="#142A6F"/>
<path d="M137.667 291.067C130.067 298.8 131.667 311.467 141 315.867C146.467 318.533 150.067 318.533 155 316C160.6 313.2 163 308.933 163 302.267C163 297.333 162.2 295.6 158.467 291.867C154.6 288 153 287.333 147.667 287.333C142.6 287.333 140.733 288 137.667 291.067ZM153.667 296.667C159 302 155.4 310 147.667 310C142.333 310 140.333 307.867 140.333 302.533C140.333 295.067 148.467 291.467 153.667 296.667Z" fill="#142A6F"/>
<path d="M143 302.667C143 304 144.467 304.667 147.667 304.667C150.867 304.667 152.333 304 152.333 302.667C152.333 301.333 150.867 300.667 147.667 300.667C144.467 300.667 143 301.333 143 302.667Z" fill="#142A6F"/>
<path d="M9.53334 316.267C6.60001 316.933 5.80001 324 6.60001 341.2C7.26668 352.133 7.80001 355.333 9.26668 355.333C10.3333 355.333 19.1333 350.533 29 344.8C38.7333 338.933 54.2 330.4 63.2667 325.733L79.6667 317.467L72.3333 316.533C64.3333 315.467 13 315.333 9.53334 316.267Z" fill="#142A6F"/>
<path d="M164.333 319.333C162.467 321.2 159.933 323.2 158.6 324C156.6 325.2 156.733 326 160.067 332.533C163.8 340 179.4 358 180.867 356.533C181.4 356 179.933 352.8 177.8 349.333C173 341.733 170.067 333.2 168.6 323.333L167.667 316L164.333 319.333Z" fill="#142A6F"/>
<path d="M85 319.6C79 322.933 41.2666 347.2 25.4 357.733C11.4 367.067 7.93331 370 5.66664 374.533C1.53331 383.333 -0.200023 399.867 1.53331 414.8C3.13331 428 6.73331 440.8 8.99998 441.6C9.79998 441.867 15.8 433.2 22.3333 422.4C47.9333 380.533 69.4 349.333 86.8666 329.333C92.4666 322.933 94.3333 319.733 93.2666 319.067C91 317.6 88.0666 317.867 85 319.6Z" fill="#142A6F"/>
<path d="M97.1334 331.467C71.8 363.6 41.9334 411.2 19.8 455.333C-2.59998 499.733 -2.33331 498.8 6.60002 508.8C16.7334 520 33.5334 525.6 60.4667 526.933L77.2667 527.733L78.2 507.867C81.5334 436.667 92.0667 379.6 110.333 334.4C112.867 328 114.733 322.667 114.6 322.4C114.333 322.267 112.333 321.6 110.067 321.2C106.2 320.4 105.4 321.067 97.1334 331.467Z" fill="#142A6F"/>
<path d="M119.267 333.867C109.933 358.133 103 398 100.2 442.667C98.3333 471.867 99.3999 530.933 101.667 533.2C102.6 534.133 111 534.8 122.733 535.067C145.4 535.6 159.4 533.067 174.867 525.733C187.133 520 200.2 506.667 204.067 496.267C208.733 483.867 208.2 482.133 198.733 476.667C188.467 470.8 172.6 456.133 165.133 445.467C146.867 419.867 138.6 389.733 138.6 349.6V327.333L133.8 326.133C122.333 323.333 123.533 322.667 119.267 333.867Z" fill="#142A6F"/>
<path d="M143.267 343.6C145.667 394 173.8 443.867 210.067 462C223.133 468.533 228.6 469.733 234.333 466.933C242.2 463.2 250.6 450.8 255.8 435.333C258.6 426.933 259.267 405.733 256.867 403.333C255.667 402.133 253 402.533 246.333 404.533C225.533 410.933 202.467 404.933 180.867 387.6C165.4 375.067 150.6 352.8 146.867 336C144.2 323.733 142.6 327.2 143.267 343.6Z" fill="#142A6F"/>
<path d="M150.2 332.267C150.6 334.4 153.933 341.733 157.267 348.667C171.533 377.2 203.267 399.067 226.067 396.133C233.133 395.2 244.067 390.267 246.867 386.8C248.467 384.933 248.2 384.667 244.733 384.667C238.733 384.667 228.733 381.2 223 377.333C219 374.533 215.8 373.6 209.8 373.333C197.933 372.667 188.2 369.333 179.4 362.933C169.267 355.333 162.867 347.867 157.8 337.2C155.267 331.867 152.867 328.667 151.533 328.667C149.933 328.667 149.533 329.467 150.2 332.267Z" fill="#142A6F"/>
</svg>
